<?xml version="1.0" encoding="UTF-8" standalone="no"?>
<!DOCTYPE svg PUBLIC "-//W3C//DTD SVG 1.1//EN" "http://www.w3.org/Graphics/SVG/1.1/DTD/svg11.dtd">
<svg width="100%" height="100%" viewBox="0 0 175 175" version="1.1" xmlns="http://www.w3.org/2000/svg" xmlns:xlink="http://www.w3.org/1999/xlink" xml:space="preserve" xmlns:serif="http://www.serif.com/" style="fill-rule:evenodd;clip-rule:evenodd;stroke-linecap:round;stroke-linejoin:round;stroke-miterlimit:1.5;">
    <g id="Hemd" transform="matrix(-1,0,0,1,219.246,-14.5312)">
        <path d="M118.588,167.577L94.243,171.939L78.573,187.725L73.257,207.032L81.386,220.204L115.51,215.707L126.703,190.243L125.494,167.315L118.588,167.577Z" style="fill:white;"/>
    </g>
    <g id="Krawatte" transform="matrix(-1,0,0,1,219.246,-14.5312)">
        <path d="M158.763,132.125L153.485,132.108L107.52,153.326L85.024,153.886L79.148,156.521L70.753,171.939L57.882,192.325L49.766,201.735L52.565,220.204L53.124,233.915L55.083,239.791L76.04,233.075L81.386,220.204L80.972,212.865C80.972,212.865 79.362,212.713 79.294,211.684C79.137,209.281 79.943,203.781 79.941,201.17C79.94,199.771 79,197.257 79.428,195.579C79.855,193.901 81.929,191.536 83.092,190.148C85.63,187.123 91.518,180.336 94.651,177.423C96.522,175.684 98.965,174.409 101.308,173.626C104.041,172.712 108.555,172.88 111.708,172.599C114.543,172.346 121.488,170.64 121.488,170.64L142.387,152.767L156.543,143.432L158.763,132.125Z" style="fill:rgb(154,47,47);stroke:black;stroke-width:1px;"/>
    </g>
    <g transform="matrix(-1,0,0,1,219.246,-14.5312)">
        <path d="M104.667,156.648L102.86,173.006L114.389,172.994L122.162,169.948L154.961,144.475L159.737,133.248L153.485,132.108L104.667,156.648Z" style="fill:rgb(81,32,32);fill-opacity:0.53;"/>
    </g>
    <g transform="matrix(-1,0,0,1,219.246,-14.5312)">
        <path d="M92.331,164.102L87.927,168.595L82.154,171.896L79.953,174.944C79.953,174.944 71.679,186.891 69.816,193.31C66.946,203.198 62.731,234.275 62.731,234.275C64.728,232.368 66.744,230.225 68.698,228.07C72.721,223.635 76.486,219.146 79.308,216.549C79.976,215.934 80.551,214.126 80.189,213.109C79.921,212.356 78.742,212.433 78.787,211.674L79.858,204.515L79.177,196.116L83.776,189.022L94.613,176.821L104.757,171.939L93.615,161.168L91.048,159.793L92.331,164.102Z" style="fill:rgb(86,28,28);fill-opacity:0.39;"/>
    </g>
    <g transform="matrix(-1,0,0,1,219.246,-14.5312)">
        <path d="M159.882,137.441L160.861,141.743L124.662,198.161L87.408,235.309L75.841,246.36L40.188,246.239L51.993,206.452L52.848,198.212L56.974,196.493L56.057,199.358L55.713,201.536L57.512,205.407L57.154,213.286L56.617,221.345L56.617,229.583L57.691,233.165L57.691,237.642L59.661,238.716L61.094,238L62.526,236.388L64.317,232.09L69.332,227.076L72.734,222.778L79.002,217.226L81.509,211.675L122.162,169.948L133.993,160.602L142.387,152.767L159.882,137.441Z" style="fill:rgb(50,32,32);stroke:black;stroke-width:1px;"/>
    </g>
    <g transform="matrix(-1,0,0,1,219.246,-14.5312)">
        <path d="M179.662,156.521L197.395,166.957L212.57,177.079L230.631,213.829L107.52,246.725L121.511,215.634L126.321,188.963L153.6,159.669L171.792,156.521L179.662,156.521Z" style="fill:rgb(14,13,12);"/>
    </g>
    <g transform="matrix(-1,0,0,1,219.246,-14.5312)">
        <path d="M40.188,246.239L45.872,229.188L51.993,206.452L56.907,193.773L76.04,165.353L76.04,156.521L72.105,156.521L67.296,166.228L56.907,175.847L55.508,185.903L47.621,199.019L37.128,218.694L34.941,225.253L27.509,230.499L22.699,246.239L40.188,246.239Z" style="fill:rgb(14,13,12);stroke:black;stroke-width:1px;"/>
    </g>
    <g transform="matrix(-1,0,0,1,219.246,-14.5312)">
        <path d="M76.04,246.427L80.85,230.499L88.282,213.01L101.399,198.582L122.386,181.968L128.944,170.6L136.814,162.293L153.6,145.678L158.763,132.125L175.727,151.691L179.662,156.521L171.792,156.521L158.763,167.539L153.6,181.968L149.056,193.335L131.13,195.084L136.377,211.261L138.563,215.196L107.52,246.239L76.04,246.427Z" style="stroke:black;stroke-width:1px;"/>
    </g>
    <g transform="matrix(-1,0,0,1,219.246,-14.5312)">
        <path d="M149.446,121.671L151.308,122.824L153.485,132.108L153.6,135.317L153.485,137.38L147.411,142.767L138.929,146.893L131.938,150.217L121.279,153.77L111.193,156.062L102.367,156.521L95.605,155.604L95.949,151.691L105.788,148.546L131.087,134.904L143.477,128.809L149.446,121.671Z" style="fill:white;stroke:black;stroke-width:1px;"/>
    </g>
    <g transform="matrix(-1,0,0,1,219.246,-14.5312)">
        <path d="M93.844,151.663L97.202,152.503L104.757,154.741L104.757,171.939C100.461,167.484 90.702,157.833 90.702,157.833L89.279,156.269L84.33,156.42L80.133,157.819L78.884,159.793L76.522,162.414L76.643,144.475L82.816,147.829L85.729,149.145L88.379,150.257L90.766,151.104L93.844,151.663Z" style="fill:white;stroke:black;stroke-width:1px;"/>
    </g>
    <g transform="matrix(-1,0,0,1,219.246,-14.5312)">
        <path d="M153.166,73.873C154.145,74.433 155.078,70.282 156.524,69.955C157.97,69.629 160.488,70.935 161.841,71.914C163.14,72.855 164.126,74.572 164.639,75.832C165.098,76.958 164.919,76.951 164.919,79.469C164.919,81.988 165.525,84.226 165.198,86.465C164.872,88.703 163.941,90.852 162.96,92.901C161.887,95.139 159.882,97.984 158.763,99.896C157.898,101.374 157.503,103.441 156.244,104.373C154.985,105.306 152.606,105.399 151.207,105.493C150.075,105.568 148.223,104.28 147.849,104.933C147.476,105.586 148.841,107.877 148.969,109.41C149.109,111.089 148.689,113.328 148.689,115.007C148.689,116.502 148.876,118.178 148.969,119.484C149.049,120.604 149.846,121.891 149.249,122.842C148.223,124.474 145.337,127.595 142.813,129.278C140.014,131.143 135.211,132.496 132.459,134.035C130.245,135.273 128.338,137.201 126.303,138.512C124.359,139.764 122.324,140.878 120.248,141.898C117.59,143.204 113.448,144.952 110.353,146.347C107.461,147.65 104.431,149.378 101.679,150.264C99.154,151.077 96.49,151.849 93.844,151.663C91.186,151.477 88.322,150.284 85.729,149.145C82.651,147.792 78.034,145.694 75.376,143.548C72.995,141.627 71.191,138.988 69.779,136.273C67.96,132.775 64.463,122.562 64.463,122.562L62.784,110.53L59.146,100.456L58.307,83.387L56.907,70.795L61.664,41.693L75.376,28.262L96.082,30.221L124.344,38.056L138.895,44.492L148.129,59.602L150.648,66.598C150.648,66.598 152.187,73.313 153.166,73.873Z" style="fill:rgb(245,224,181);stroke:black;stroke-width:1px;"/>
    </g>
    <g transform="matrix(-1,0,0,1,219.246,-14.5312)">
        <path d="M107.308,45.945L104.412,54.451L109.34,67.659L116.934,71.912L116.934,73.703L115.367,74.598L109.34,74.15L101.264,73.479L93.653,72.36L87.161,73.703L84.251,76.837L85.37,80.944L85.534,86.813L83.762,103.36L79.292,110.693L83.132,115.394L83.803,118.026L92.086,126.322L85.147,129.219L82.013,131.01L87.161,134.144L92.982,135.711L97.906,136.383L92.086,139.964L75.376,140.188L78.423,145.575C83.675,148.165 89.107,150.576 95.894,151.632L112.59,145.353L130.011,135.699C137.091,132.668 143.325,129.449 146.964,125.653C149.822,122.797 150.034,119.502 148.689,115.118L147.934,104.834C148.562,103.525 147.819,102.34 148.502,100.742C149.13,99.272 150.51,98.728 151.253,97.31C151.801,96.263 152.053,94.39 152.053,94.39C152.053,94.39 152.524,93.606 153.136,93.399C153.208,93.375 153.963,93.883 154.628,92.964C155.953,91.133 157.872,88.449 158.02,88.516C158.204,88.599 158.422,89.478 157.758,90.518C157.225,91.353 155.847,92.264 155.503,93.17C154.835,94.93 155.459,96.274 155.612,96.635C155.923,97.374 157.233,97.556 158.605,96.502C161.286,94.443 163.73,84.595 163.992,84.357C165.137,83.32 166.19,88.365 164.979,80.944C166.466,75.789 164.2,72.064 157.664,69.965L138.895,44.492L109.34,42.811L107.308,45.945ZM111.371,86.813L117.962,88.85C117.962,88.85 121.925,89.471 122.546,90.426C123.167,91.381 122.424,93.374 121.687,94.581C120.899,95.87 119.06,96.992 117.818,98.162C116.614,99.297 115.219,100.269 114.237,101.601C113.162,103.057 112.173,105.06 111.371,106.902C110.488,108.931 108.936,113.778 108.936,113.778C108.936,113.778 105.235,109.146 103.635,107.331C102.272,105.786 99.915,104.867 99.337,102.89C98.614,100.421 99.513,94.162 99.298,92.515C99.263,92.248 98.047,93.005 98.047,93.005C98.047,93.005 96.773,90.188 97.331,88.85C98,87.247 99.623,83.726 102.059,83.387C104.494,83.047 111.371,86.813 111.371,86.813ZM148.759,89.285C149.107,88.784 150.065,89.922 150.173,92.276C150.199,92.834 149.821,93.457 149.727,94.06C149.546,95.23 148.037,96.176 148.028,95.618C148.025,95.495 148.41,89.786 148.759,89.285Z" style="fill:rgb(28,18,13);fill-opacity:0.17;"/>
    </g>
    <g transform="matrix(-1,0,0,1,219.246,-14.5312)">
        <path d="M56.907,70.795L55.508,59.042L58.866,52.047L58.866,44.212L60.265,36.377L65.022,30.78L74.256,24.344L85.729,17.629L92.725,16.789L99.72,14.831L112.872,14.831L119.588,15.39L125.184,17.909L130.221,20.427L133.299,24.344L139.455,27.423L143.652,30.501L148.689,36.657L154.845,46.171L157.363,56.524L158.763,69.116L156.524,69.955L153.166,73.873L150.088,80.589L148.129,83.387L142.253,81.148L136.377,74.153L130.78,67.157C130.78,67.157 129.381,64.359 130.501,62.12C131.62,59.882 133.019,57.643 133.019,57.643L134.698,53.166L134.698,47.57L130.221,46.45C130.221,46.45 127.423,45.611 124.904,45.611L113.431,45.611L103.638,45.611L101.119,44.771L94.404,39.175L87.408,34.138L82.091,30.501L75.096,31.06L72.018,32.739L66.701,37.776L65.022,42.533L61.189,53.23L56.907,70.795Z" style="fill:rgb(87,72,50);stroke:black;stroke-width:0.6px;"/>
    </g>
    <g transform="matrix(-1,0,0,1,219.246,-14.5312)">
        <path d="M75.376,126.322L84.337,126.042L92.452,126.042L99.728,126.322L104.757,126.322" style="fill:none;stroke:black;stroke-width:1px;"/>
    </g>
    <g transform="matrix(-1,0,0,1,219.246,-14.5312)">
        <path d="M69.733,74.093L74.154,74.236L76.987,76.099L79.566,79.108L80.998,80.97L81.142,83.387L79.995,87.131C79.995,87.131 76.522,88.707 75.376,88.85C74.577,88.95 73.614,88.348 73.119,87.99C72.72,87.702 72.61,87.146 72.402,86.701C72.044,85.934 71.519,83.939 70.97,83.387C70.532,82.947 69.441,83.026 69.107,83.387C68.773,83.748 69.298,85.169 68.964,85.555C68.63,85.94 67.696,85.515 67.101,85.698C66.481,85.889 65.822,86.304 65.239,86.701C64.642,87.107 64.021,88.205 63.52,88.133C63.018,88.062 62.421,86.844 62.23,86.271C62.063,85.771 62.373,84.695 62.373,84.695L62.517,83.387L61.084,81.113L62.517,80.254L63.806,79.537L65.382,77.245L66.672,75.669L69.733,74.093Z" style="fill-opacity:0.17;"/>
    </g>
    <g transform="matrix(-1,0,0,1,219.246,-14.5312)">
        <path d="M89.686,117.872C89.686,117.872 95.298,117.964 98.103,118.051C100.968,118.141 104.848,117.275 106.878,118.409C108.908,119.544 110.95,123.812 110.281,124.856C109.611,125.901 102.86,124.677 102.86,124.677L89.686,124.856L78.594,124.475C78.594,124.475 72.716,125.049 72.18,124.251C71.643,123.453 73.921,120.296 75.376,119.15C76.691,118.113 79.249,119.016 80.911,118.805C83.296,118.503 89.686,117.872 89.686,117.872Z" style="fill:rgb(46,15,0);fill-opacity:0.81;"/>
    </g>
    <g transform="matrix(-1,0,0,1,219.246,-14.5312)">
        <path d="M75.376,107.22L72.099,117.819L69.912,117.819L69.733,112.234L75.376,107.22Z" style="fill:rgb(13,13,13);fill-opacity:0.17;"/>
    </g>
    <g transform="matrix(-1,0,0,1,219.246,-14.5312)">
        <path d="M100.178,105.429C101.073,106.862 108.953,115.1 108.953,115.1C108.953,115.1 110.028,119.464 108.595,117.819C107.162,116.174 99.282,103.996 100.178,105.429Z" style="fill-opacity:0.18;"/>
    </g>
    <g transform="matrix(-1,0,0,1,219.246,-14.5312)">
        <path d="M85.784,82.934L84.888,96.813L83.097,107.22L79.292,110.693L79.068,112.483L81.307,115.17L87.798,115.394L95.605,115.394L97.648,114.05L97.648,111.14L95.605,107.22L95.605,105.312L97.872,98.828L97.872,92.56L93.619,88.978L89.589,83.606L85.784,82.934Z" style="fill-opacity:0.17;"/>
    </g>
    <g id="Sklären" transform="matrix(-1,0,0,1,218.53,-15.4889)">
        <path d="M100.808,85.896C102.24,87.182 104.533,89.515 106.539,88.85C108.544,88.184 110.043,87.876 111.371,86.813C112.699,85.749 114.562,84.563 112.412,83.365C110.263,82.167 113.03,82.267 109.068,82.289C105.106,82.31 105.249,81.408 103.243,82.289C101.238,83.17 101.601,82.18 101.133,83.678C100.665,85.176 99.375,84.61 100.808,85.896Z" style="fill:white;fill-opacity:0.44;"/>
    </g>
    <g id="Sklären1" serif:id="Sklären" transform="matrix(-1,0,0,1,219.246,-14.5312)">
        <path d="M67.101,85.698C67.101,85.698 67.619,87.654 69.733,88.009C71.847,88.364 74.778,88.686 75.376,88.009C75.973,87.333 76.547,87.095 76.547,85.896C76.547,84.696 76.841,83.982 75.376,83.365C73.91,82.748 73.465,82.215 72.42,82.219C71.376,82.223 70.837,82.306 69.107,83.387C67.377,84.467 67.101,85.698 67.101,85.698Z" style="fill:white;fill-opacity:0.44;"/>
    </g>
    <g transform="matrix(-1,0,0,1,218.246,-14.5312)">
        <ellipse cx="106.876" cy="83.42" rx="2.464" ry="2.476" style="fill-opacity:0.45;"/>
    </g>
    <g transform="matrix(-1,0,0,1.16644,218.246,-28.9807)">
        <ellipse cx="71.943" cy="84.873" rx="2.21" ry="1.939" style="fill-opacity:0.45;"/>
    </g>
    <g transform="matrix(-1,0,0,1,218.675,-14.3425)">
        <circle cx="72.287" cy="84.513" r="0.58" style="fill:rgb(89,88,86);"/>
    </g>
    <g transform="matrix(-0.693291,0,0,0.693291,195.522,11.0714)">
        <circle cx="72.287" cy="84.513" r="0.58" style="fill:rgb(206,206,206);"/>
    </g>
    <g transform="matrix(-0.693291,0,0,0.693291,160.501,9.70998)">
        <circle cx="72.287" cy="84.513" r="0.58" style="fill:rgb(206,206,206);"/>
    </g>
    <g transform="matrix(-1,0,0,1,183.642,-15.5023)">
        <circle cx="72.287" cy="84.513" r="0.58" style="fill:rgb(89,88,86);"/>
    </g>
    <g transform="matrix(-1,0,0,1,219.246,-14.5312)">
        <path d="M72.873,182.843C72.873,182.843 71.897,183.676 71.808,182.843C71.719,182.01 71.641,180.549 71.808,179.998C71.976,179.446 71.686,177.944 72.215,177.221C72.745,176.498 73.386,175.985 73.963,176.562C74.539,177.139 74.86,177.074 75.052,177.972C75.245,178.869 75.309,179.061 74.924,179.574C74.539,180.087 74.732,180.343 74.091,181.113C73.45,181.882 72.873,182.843 72.873,182.843Z" style="fill:rgb(211,211,211);fill-opacity:0.13;"/>
    </g>
    <g transform="matrix(-1,0,0,1,226.513,-16.4091)">
        <path d="M104.456,77.724L109.307,76.941L116.193,77.411L120.105,77.88L126.208,79.758L125.269,81.01L122.778,81.323L117.132,81.166L111.811,80.227L107.273,79.601L104.456,77.724Z" style="fill:rgb(75,47,30);"/>
    </g>
    <g transform="matrix(-1,0,0,1,219.246,-14.5312)">
        <path d="M77.697,79.288L75.205,76.941L70.655,75.063L67.525,75.376L64.552,77.567L64.02,80.478L67.525,79.445L70.248,78.445L73.002,79.071L75.376,79.445L77.697,79.288Z" style="fill:rgb(75,47,30);"/>
    </g>
    <g transform="matrix(-1,0,0,1,219.246,-14.5312)">
        <path d="M147.238,97.421C147.124,98.091 147.01,99.971 147.238,100.498C147.419,100.917 148.289,100.912 148.605,100.583C148.962,100.213 148.976,98.76 149.375,98.276C149.741,97.83 150.647,98.135 150.998,97.677C151.468,97.065 151.882,95.285 152.195,94.601C152.366,94.227 151.597,94.088 152.879,93.575C154.161,93.062 154.859,92.293 155.443,91.781C155.841,91.431 156.169,90.926 156.383,90.499C156.58,90.103 156.573,89.632 156.724,89.217C156.895,88.747 157.255,88.218 157.408,87.678C157.565,87.125 157.679,86.423 157.665,85.896C157.652,85.422 157.432,84.977 157.323,84.516C157.18,83.915 157.209,82.66 156.81,82.289C156.411,81.918 155.556,82.289 154.93,82.289L151.768,82.289C151.454,82.289 151.084,82.109 150.828,82.289C150.571,82.468 150.342,82.97 150.229,83.365C150.058,83.966 149.93,85.321 149.802,85.896C149.731,86.214 149.731,87.819 149.802,88.277C149.868,88.7 149.843,89.133 149.887,89.559C149.944,90.1 150.101,90.997 150.144,91.524C150.176,91.922 150.233,92.332 150.144,92.721C150.016,93.276 149.631,94.359 149.375,94.857C149.199,95.198 148.848,95.441 148.605,95.712C148.377,95.967 148.136,96.213 147.922,96.481C147.694,96.766 147.303,97.039 147.238,97.421Z" style="fill:rgb(32,28,20);fill-opacity:0.13;"/>
    </g>
    <g transform="matrix(-1,0,0,1,219.246,-14.5312)">
        <path d="M155.9,73.712L160.574,74.513L162.043,75.314L163.244,77.584L163.111,80.122L162.176,81.457L161.776,79.721L160.707,77.584L159.906,76.383L157.369,75.314L155.499,75.314L155.9,73.712Z" style="fill:rgb(42,36,25);fill-opacity:0.18;"/>
    </g>
    <g transform="matrix(-1,0,0,1,219.246,-14.5312)">
        <path d="M155.499,78.519L158.17,78.519L159.505,79.32L160.841,81.59L161.241,82.792L161.108,86.932L159.773,90.938C159.773,90.938 159.505,92.674 158.704,93.876C157.903,95.078 157.102,96.546 157.102,96.546L155.366,96.68L155.232,93.609L158.571,89.335L158.971,86.798L159.372,82.792L158.437,80.389L155.9,79.988L154.298,79.454L155.499,78.519Z" style="fill:rgb(42,36,25);fill-opacity:0.18;"/>
    </g>
    <g transform="matrix(-1,0,0,1,219.246,-14.5312)">
        <path d="M148.022,106.436L139.74,116.075L130.944,121.552L123.476,124.373L117.004,131.343L113.187,136.487L106.881,143.789L97.588,147.274L91.946,147.606L89.29,146.112L87.797,144.453L85.142,145.615L83.316,147.606L81.491,148.27C81.491,148.27 82.321,148.602 83.814,148.934C85.308,149.266 88.295,150.261 88.295,150.261L90.95,152.087L94.767,151.589C94.767,151.589 94.767,150.925 97.09,150.759C99.413,150.593 105.554,147.938 105.554,147.938L120.489,141.632L135.757,133.002L142.561,129.351L148.899,123.451L149.11,121.31C148.695,117.692 149.215,113.098 148.97,109.65C148.869,108.221 148.322,107.792 148.022,106.436Z" style="fill:rgb(3,3,2);fill-opacity:0.13;"/>
    </g>
</svg>